<mxfile host="app.diagrams.net" agent="Mozilla/5.0 (Macintosh; Intel Mac OS X 10_15_7) AppleWebKit/537.36 (KHTML, like Gecko) Chrome/127.0.0.0 Safari/537.36" version="24.7.17">
  <diagram name="Page-1" id="74e2e168-ea6b-b213-b513-2b3c1d86103e">
    <mxGraphModel dx="1445" dy="1225" grid="1" gridSize="10" guides="1" tooltips="1" connect="1" arrows="1" fold="1" page="1" pageScale="1" pageWidth="827" pageHeight="1169" background="none" math="0" shadow="0">
      <root>
        <mxCell id="0" />
        <mxCell id="1" parent="0" />
        <mxCell id="cHgDqDQNEXxiHis1YK12-562" value="新闻媒体" style="whiteSpace=wrap;strokeWidth=2;" vertex="1" parent="1">
          <mxGeometry x="149" y="20" width="124" height="49" as="geometry" />
        </mxCell>
        <mxCell id="cHgDqDQNEXxiHis1YK12-563" value="媒体编号" style="rounded=1;arcSize=40;strokeWidth=2" vertex="1" parent="1">
          <mxGeometry x="20" y="141" width="94" height="49" as="geometry" />
        </mxCell>
        <mxCell id="cHgDqDQNEXxiHis1YK12-564" value="媒体名称" style="rounded=1;arcSize=40;strokeWidth=2" vertex="1" parent="1">
          <mxGeometry x="164" y="141" width="94" height="49" as="geometry" />
        </mxCell>
        <mxCell id="cHgDqDQNEXxiHis1YK12-565" value="媒体链接" style="rounded=1;arcSize=40;strokeWidth=2" vertex="1" parent="1">
          <mxGeometry x="308" y="141" width="94" height="49" as="geometry" />
        </mxCell>
        <mxCell id="cHgDqDQNEXxiHis1YK12-566" value="所在区域" style="rounded=1;arcSize=40;strokeWidth=2" vertex="1" parent="1">
          <mxGeometry x="452" y="141" width="94" height="49" as="geometry" />
        </mxCell>
        <mxCell id="cHgDqDQNEXxiHis1YK12-567" value="新闻分类" style="whiteSpace=wrap;strokeWidth=2;" vertex="1" parent="1">
          <mxGeometry x="725" y="20" width="124" height="49" as="geometry" />
        </mxCell>
        <mxCell id="cHgDqDQNEXxiHis1YK12-568" value="分类编号" style="rounded=1;arcSize=40;strokeWidth=2" vertex="1" parent="1">
          <mxGeometry x="596" y="141" width="94" height="49" as="geometry" />
        </mxCell>
        <mxCell id="cHgDqDQNEXxiHis1YK12-569" value="分类名称" style="rounded=1;arcSize=40;strokeWidth=2" vertex="1" parent="1">
          <mxGeometry x="740" y="141" width="94" height="49" as="geometry" />
        </mxCell>
        <mxCell id="cHgDqDQNEXxiHis1YK12-570" value="是否显示" style="rounded=1;arcSize=40;strokeWidth=2" vertex="1" parent="1">
          <mxGeometry x="884" y="141" width="94" height="49" as="geometry" />
        </mxCell>
        <mxCell id="cHgDqDQNEXxiHis1YK12-571" value="显示顺序" style="rounded=1;arcSize=40;strokeWidth=2" vertex="1" parent="1">
          <mxGeometry x="1028" y="141" width="94" height="49" as="geometry" />
        </mxCell>
        <mxCell id="cHgDqDQNEXxiHis1YK12-572" value="媒体分类" style="whiteSpace=wrap;strokeWidth=2;" vertex="1" parent="1">
          <mxGeometry x="1172" y="141" width="124" height="49" as="geometry" />
        </mxCell>
        <mxCell id="cHgDqDQNEXxiHis1YK12-573" value="媒体分类编号" style="rounded=1;arcSize=40;strokeWidth=2" vertex="1" parent="1">
          <mxGeometry x="941" y="262" width="126" height="49" as="geometry" />
        </mxCell>
        <mxCell id="cHgDqDQNEXxiHis1YK12-574" value="媒体编号#" style="rounded=1;arcSize=40;strokeWidth=2" vertex="1" parent="1">
          <mxGeometry x="1117" y="262" width="102" height="49" as="geometry" />
        </mxCell>
        <mxCell id="cHgDqDQNEXxiHis1YK12-575" value="分类名称" style="rounded=1;arcSize=40;strokeWidth=2" vertex="1" parent="1">
          <mxGeometry x="1269" y="262" width="94" height="49" as="geometry" />
        </mxCell>
        <mxCell id="cHgDqDQNEXxiHis1YK12-576" value="分类编号#" style="rounded=1;arcSize=40;strokeWidth=2" vertex="1" parent="1">
          <mxGeometry x="1413" y="262" width="102" height="49" as="geometry" />
        </mxCell>
        <mxCell id="cHgDqDQNEXxiHis1YK12-577" value="标准分类名称" style="rounded=1;arcSize=40;strokeWidth=2" vertex="1" parent="1">
          <mxGeometry x="1566" y="262" width="126" height="49" as="geometry" />
        </mxCell>
        <mxCell id="cHgDqDQNEXxiHis1YK12-578" value="分类链接" style="rounded=1;arcSize=40;strokeWidth=2" vertex="1" parent="1">
          <mxGeometry x="1742" y="262" width="94" height="49" as="geometry" />
        </mxCell>
        <mxCell id="cHgDqDQNEXxiHis1YK12-579" value="分类状态" style="rounded=1;arcSize=40;strokeWidth=2" vertex="1" parent="1">
          <mxGeometry x="1886" y="262" width="94" height="49" as="geometry" />
        </mxCell>
        <mxCell id="cHgDqDQNEXxiHis1YK12-580" value="新闻信息" style="whiteSpace=wrap;strokeWidth=2;" vertex="1" parent="1">
          <mxGeometry x="2030" y="262" width="124" height="49" as="geometry" />
        </mxCell>
        <mxCell id="cHgDqDQNEXxiHis1YK12-581" value="新闻编号" style="rounded=1;arcSize=40;strokeWidth=2" vertex="1" parent="1">
          <mxGeometry x="513" y="383" width="94" height="49" as="geometry" />
        </mxCell>
        <mxCell id="cHgDqDQNEXxiHis1YK12-582" value="媒体分类编号#" style="rounded=1;arcSize=40;strokeWidth=2" vertex="1" parent="1">
          <mxGeometry x="657" y="383" width="134" height="49" as="geometry" />
        </mxCell>
        <mxCell id="cHgDqDQNEXxiHis1YK12-583" value="新闻标题" style="rounded=1;arcSize=40;strokeWidth=2" vertex="1" parent="1">
          <mxGeometry x="841" y="383" width="94" height="49" as="geometry" />
        </mxCell>
        <mxCell id="cHgDqDQNEXxiHis1YK12-584" value="新闻链接哈希值" style="rounded=1;arcSize=40;strokeWidth=2" vertex="1" parent="1">
          <mxGeometry x="985" y="383" width="142" height="49" as="geometry" />
        </mxCell>
        <mxCell id="cHgDqDQNEXxiHis1YK12-585" value="新闻链接" style="rounded=1;arcSize=40;strokeWidth=2" vertex="1" parent="1">
          <mxGeometry x="1177" y="383" width="94" height="49" as="geometry" />
        </mxCell>
        <mxCell id="cHgDqDQNEXxiHis1YK12-586" value="新闻内容" style="rounded=1;arcSize=40;strokeWidth=2" vertex="1" parent="1">
          <mxGeometry x="1321" y="383" width="94" height="49" as="geometry" />
        </mxCell>
        <mxCell id="cHgDqDQNEXxiHis1YK12-587" value="发布时间" style="rounded=1;arcSize=40;strokeWidth=2" vertex="1" parent="1">
          <mxGeometry x="1465" y="383" width="94" height="49" as="geometry" />
        </mxCell>
        <mxCell id="cHgDqDQNEXxiHis1YK12-588" value="AI处理状态" style="rounded=1;arcSize=40;strokeWidth=2" vertex="1" parent="1">
          <mxGeometry x="1609" y="383" width="108" height="49" as="geometry" />
        </mxCell>
        <mxCell id="cHgDqDQNEXxiHis1YK12-589" value="AI处理结果" style="rounded=1;arcSize=40;strokeWidth=2" vertex="1" parent="1">
          <mxGeometry x="1767" y="383" width="108" height="49" as="geometry" />
        </mxCell>
        <mxCell id="cHgDqDQNEXxiHis1YK12-590" value="创建时间" style="rounded=1;arcSize=40;strokeWidth=2" vertex="1" parent="1">
          <mxGeometry x="1925" y="383" width="94" height="49" as="geometry" />
        </mxCell>
        <mxCell id="cHgDqDQNEXxiHis1YK12-591" value="更新时间" style="rounded=1;arcSize=40;strokeWidth=2" vertex="1" parent="1">
          <mxGeometry x="2069" y="383" width="94" height="49" as="geometry" />
        </mxCell>
        <mxCell id="cHgDqDQNEXxiHis1YK12-592" value="用户信息" style="whiteSpace=wrap;strokeWidth=2;" vertex="1" parent="1">
          <mxGeometry x="2750" y="262" width="124" height="49" as="geometry" />
        </mxCell>
        <mxCell id="cHgDqDQNEXxiHis1YK12-593" value="用户编号" style="rounded=1;arcSize=40;strokeWidth=2" vertex="1" parent="1">
          <mxGeometry x="2213" y="383" width="94" height="49" as="geometry" />
        </mxCell>
        <mxCell id="cHgDqDQNEXxiHis1YK12-594" value="用户邮箱" style="rounded=1;arcSize=40;strokeWidth=2" vertex="1" parent="1">
          <mxGeometry x="2357" y="383" width="94" height="49" as="geometry" />
        </mxCell>
        <mxCell id="cHgDqDQNEXxiHis1YK12-595" value="验证码" style="rounded=1;arcSize=40;strokeWidth=2" vertex="1" parent="1">
          <mxGeometry x="2501" y="383" width="78" height="49" as="geometry" />
        </mxCell>
        <mxCell id="cHgDqDQNEXxiHis1YK12-596" value="喜爱文章分类" style="rounded=1;arcSize=40;strokeWidth=2" vertex="1" parent="1">
          <mxGeometry x="2629" y="383" width="126" height="49" as="geometry" />
        </mxCell>
        <mxCell id="cHgDqDQNEXxiHis1YK12-597" value="验证码发送时间" style="rounded=1;arcSize=40;strokeWidth=2" vertex="1" parent="1">
          <mxGeometry x="2805" y="383" width="142" height="49" as="geometry" />
        </mxCell>
        <mxCell id="cHgDqDQNEXxiHis1YK12-598" value="新闻改写" style="whiteSpace=wrap;strokeWidth=2;" vertex="1" parent="1">
          <mxGeometry x="3010" y="383" width="124" height="49" as="geometry" />
        </mxCell>
        <mxCell id="cHgDqDQNEXxiHis1YK12-599" value="新闻链接哈希值" style="rounded=1;arcSize=40;strokeWidth=2" vertex="1" parent="1">
          <mxGeometry x="1881" y="504" width="142" height="49" as="geometry" />
        </mxCell>
        <mxCell id="cHgDqDQNEXxiHis1YK12-600" value="AI改写标题" style="rounded=1;arcSize=40;strokeWidth=2" vertex="1" parent="1">
          <mxGeometry x="2073" y="504" width="108" height="49" as="geometry" />
        </mxCell>
        <mxCell id="cHgDqDQNEXxiHis1YK12-601" value="新闻标签" style="rounded=1;arcSize=40;strokeWidth=2" vertex="1" parent="1">
          <mxGeometry x="2231" y="504" width="94" height="49" as="geometry" />
        </mxCell>
        <mxCell id="cHgDqDQNEXxiHis1YK12-602" value="分类编号#" style="rounded=1;arcSize=40;strokeWidth=2" vertex="1" parent="1">
          <mxGeometry x="2375" y="504" width="102" height="49" as="geometry" />
        </mxCell>
        <mxCell id="cHgDqDQNEXxiHis1YK12-603" value="分类名称" style="rounded=1;arcSize=40;strokeWidth=2" vertex="1" parent="1">
          <mxGeometry x="2527" y="504" width="94" height="49" as="geometry" />
        </mxCell>
        <mxCell id="cHgDqDQNEXxiHis1YK12-604" value="创建时间" style="rounded=1;arcSize=40;strokeWidth=2" vertex="1" parent="1">
          <mxGeometry x="2671" y="504" width="94" height="49" as="geometry" />
        </mxCell>
        <mxCell id="cHgDqDQNEXxiHis1YK12-605" value="发布时间" style="rounded=1;arcSize=40;strokeWidth=2" vertex="1" parent="1">
          <mxGeometry x="2815" y="504" width="94" height="49" as="geometry" />
        </mxCell>
        <mxCell id="cHgDqDQNEXxiHis1YK12-606" value="AI改写较短长度新闻内容" style="rounded=1;arcSize=40;strokeWidth=2" vertex="1" parent="1">
          <mxGeometry x="2959" y="504" width="204" height="49" as="geometry" />
        </mxCell>
        <mxCell id="cHgDqDQNEXxiHis1YK12-607" value="AI改写中等长度新闻内容" style="rounded=1;arcSize=40;strokeWidth=2" vertex="1" parent="1">
          <mxGeometry x="3213" y="504" width="204" height="49" as="geometry" />
        </mxCell>
        <mxCell id="cHgDqDQNEXxiHis1YK12-608" value="AI改写较长长度新闻内容" style="rounded=1;arcSize=40;strokeWidth=2" vertex="1" parent="1">
          <mxGeometry x="3467" y="504" width="204" height="49" as="geometry" />
        </mxCell>
        <mxCell id="cHgDqDQNEXxiHis1YK12-609" value="媒体编号" style="curved=1;startArrow=none;endArrow=block;exitX=0.03;exitY=0.99;entryX=0.5;entryY=0;rounded=0;" edge="1" parent="1" source="cHgDqDQNEXxiHis1YK12-562" target="cHgDqDQNEXxiHis1YK12-563">
          <mxGeometry relative="1" as="geometry">
            <Array as="points">
              <mxPoint x="67" y="105" />
            </Array>
          </mxGeometry>
        </mxCell>
        <mxCell id="cHgDqDQNEXxiHis1YK12-610" value="" style="curved=1;startArrow=none;endArrow=block;exitX=0.5;exitY=0.99;entryX=0.5;entryY=0;rounded=0;" edge="1" parent="1" source="cHgDqDQNEXxiHis1YK12-562" target="cHgDqDQNEXxiHis1YK12-564">
          <mxGeometry relative="1" as="geometry">
            <Array as="points" />
          </mxGeometry>
        </mxCell>
        <mxCell id="cHgDqDQNEXxiHis1YK12-611" value="" style="curved=1;startArrow=none;endArrow=block;exitX=0.97;exitY=0.99;entryX=0.5;entryY=0;rounded=0;" edge="1" parent="1" source="cHgDqDQNEXxiHis1YK12-562" target="cHgDqDQNEXxiHis1YK12-565">
          <mxGeometry relative="1" as="geometry">
            <Array as="points">
              <mxPoint x="355" y="105" />
            </Array>
          </mxGeometry>
        </mxCell>
        <mxCell id="cHgDqDQNEXxiHis1YK12-612" value="" style="curved=1;startArrow=none;endArrow=block;exitX=1;exitY=0.76;entryX=0.5;entryY=0;rounded=0;" edge="1" parent="1" source="cHgDqDQNEXxiHis1YK12-562" target="cHgDqDQNEXxiHis1YK12-566">
          <mxGeometry relative="1" as="geometry">
            <Array as="points">
              <mxPoint x="499" y="105" />
            </Array>
          </mxGeometry>
        </mxCell>
        <mxCell id="cHgDqDQNEXxiHis1YK12-613" value="分类编号" style="curved=1;startArrow=none;endArrow=block;exitX=0.03;exitY=0.99;entryX=0.5;entryY=0;rounded=0;" edge="1" parent="1" source="cHgDqDQNEXxiHis1YK12-567" target="cHgDqDQNEXxiHis1YK12-568">
          <mxGeometry relative="1" as="geometry">
            <Array as="points">
              <mxPoint x="643" y="105" />
            </Array>
          </mxGeometry>
        </mxCell>
        <mxCell id="cHgDqDQNEXxiHis1YK12-614" value="" style="curved=1;startArrow=none;endArrow=block;exitX=0.5;exitY=0.99;entryX=0.5;entryY=0;rounded=0;" edge="1" parent="1" source="cHgDqDQNEXxiHis1YK12-567" target="cHgDqDQNEXxiHis1YK12-569">
          <mxGeometry relative="1" as="geometry">
            <Array as="points" />
          </mxGeometry>
        </mxCell>
        <mxCell id="cHgDqDQNEXxiHis1YK12-615" value="" style="curved=1;startArrow=none;endArrow=block;exitX=0.97;exitY=0.99;entryX=0.5;entryY=0;rounded=0;" edge="1" parent="1" source="cHgDqDQNEXxiHis1YK12-567" target="cHgDqDQNEXxiHis1YK12-570">
          <mxGeometry relative="1" as="geometry">
            <Array as="points">
              <mxPoint x="931" y="105" />
            </Array>
          </mxGeometry>
        </mxCell>
        <mxCell id="cHgDqDQNEXxiHis1YK12-616" value="" style="curved=1;startArrow=none;endArrow=block;exitX=1;exitY=0.76;entryX=0.5;entryY=0;rounded=0;" edge="1" parent="1" source="cHgDqDQNEXxiHis1YK12-567" target="cHgDqDQNEXxiHis1YK12-571">
          <mxGeometry relative="1" as="geometry">
            <Array as="points">
              <mxPoint x="1075" y="105" />
            </Array>
          </mxGeometry>
        </mxCell>
        <mxCell id="cHgDqDQNEXxiHis1YK12-617" value="媒体分类编号" style="curved=1;startArrow=none;endArrow=block;exitX=0;exitY=0.83;entryX=0.5;entryY=0;rounded=0;" edge="1" parent="1" source="cHgDqDQNEXxiHis1YK12-572" target="cHgDqDQNEXxiHis1YK12-573">
          <mxGeometry relative="1" as="geometry">
            <Array as="points">
              <mxPoint x="1004" y="226" />
            </Array>
          </mxGeometry>
        </mxCell>
        <mxCell id="cHgDqDQNEXxiHis1YK12-618" value="" style="curved=1;startArrow=none;endArrow=block;exitX=0.29;exitY=0.99;entryX=0.5;entryY=0;rounded=0;" edge="1" parent="1" source="cHgDqDQNEXxiHis1YK12-572" target="cHgDqDQNEXxiHis1YK12-574">
          <mxGeometry relative="1" as="geometry">
            <Array as="points">
              <mxPoint x="1168" y="226" />
            </Array>
          </mxGeometry>
        </mxCell>
        <mxCell id="cHgDqDQNEXxiHis1YK12-619" value="" style="curved=1;startArrow=none;endArrow=block;exitX=0.77;exitY=0.99;entryX=0.5;entryY=0;rounded=0;" edge="1" parent="1" source="cHgDqDQNEXxiHis1YK12-572" target="cHgDqDQNEXxiHis1YK12-575">
          <mxGeometry relative="1" as="geometry">
            <Array as="points">
              <mxPoint x="1316" y="226" />
            </Array>
          </mxGeometry>
        </mxCell>
        <mxCell id="cHgDqDQNEXxiHis1YK12-620" value="" style="curved=1;startArrow=none;endArrow=block;exitX=1;exitY=0.83;entryX=0.5;entryY=0;rounded=0;" edge="1" parent="1" source="cHgDqDQNEXxiHis1YK12-572" target="cHgDqDQNEXxiHis1YK12-576">
          <mxGeometry relative="1" as="geometry">
            <Array as="points">
              <mxPoint x="1464" y="226" />
            </Array>
          </mxGeometry>
        </mxCell>
        <mxCell id="cHgDqDQNEXxiHis1YK12-621" value="" style="curved=1;startArrow=none;endArrow=block;exitX=1;exitY=0.69;entryX=0.5;entryY=0;rounded=0;" edge="1" parent="1" source="cHgDqDQNEXxiHis1YK12-572" target="cHgDqDQNEXxiHis1YK12-577">
          <mxGeometry relative="1" as="geometry">
            <Array as="points">
              <mxPoint x="1629" y="226" />
            </Array>
          </mxGeometry>
        </mxCell>
        <mxCell id="cHgDqDQNEXxiHis1YK12-622" value="" style="curved=1;startArrow=none;endArrow=block;exitX=1;exitY=0.63;entryX=0.5;entryY=0;rounded=0;" edge="1" parent="1" source="cHgDqDQNEXxiHis1YK12-572" target="cHgDqDQNEXxiHis1YK12-578">
          <mxGeometry relative="1" as="geometry">
            <Array as="points">
              <mxPoint x="1789" y="226" />
            </Array>
          </mxGeometry>
        </mxCell>
        <mxCell id="cHgDqDQNEXxiHis1YK12-623" value="" style="curved=1;startArrow=none;endArrow=block;exitX=1;exitY=0.6;entryX=0.5;entryY=0;rounded=0;" edge="1" parent="1" source="cHgDqDQNEXxiHis1YK12-572" target="cHgDqDQNEXxiHis1YK12-579">
          <mxGeometry relative="1" as="geometry">
            <Array as="points">
              <mxPoint x="1933" y="226" />
            </Array>
          </mxGeometry>
        </mxCell>
        <mxCell id="cHgDqDQNEXxiHis1YK12-624" value="新闻编号" style="curved=1;startArrow=none;endArrow=block;exitX=0;exitY=0.54;entryX=0.5;entryY=0;rounded=0;" edge="1" parent="1" source="cHgDqDQNEXxiHis1YK12-580" target="cHgDqDQNEXxiHis1YK12-581">
          <mxGeometry relative="1" as="geometry">
            <Array as="points">
              <mxPoint x="560" y="347" />
            </Array>
          </mxGeometry>
        </mxCell>
        <mxCell id="cHgDqDQNEXxiHis1YK12-625" value="" style="curved=1;startArrow=none;endArrow=block;exitX=0;exitY=0.55;entryX=0.5;entryY=0;rounded=0;" edge="1" parent="1" source="cHgDqDQNEXxiHis1YK12-580" target="cHgDqDQNEXxiHis1YK12-582">
          <mxGeometry relative="1" as="geometry">
            <Array as="points">
              <mxPoint x="724" y="347" />
            </Array>
          </mxGeometry>
        </mxCell>
        <mxCell id="cHgDqDQNEXxiHis1YK12-626" value="" style="curved=1;startArrow=none;endArrow=block;exitX=0;exitY=0.56;entryX=0.5;entryY=0;rounded=0;" edge="1" parent="1" source="cHgDqDQNEXxiHis1YK12-580" target="cHgDqDQNEXxiHis1YK12-583">
          <mxGeometry relative="1" as="geometry">
            <Array as="points">
              <mxPoint x="888" y="347" />
            </Array>
          </mxGeometry>
        </mxCell>
        <mxCell id="cHgDqDQNEXxiHis1YK12-627" value="" style="curved=1;startArrow=none;endArrow=block;exitX=0;exitY=0.57;entryX=0.5;entryY=0;rounded=0;" edge="1" parent="1" source="cHgDqDQNEXxiHis1YK12-580" target="cHgDqDQNEXxiHis1YK12-584">
          <mxGeometry relative="1" as="geometry">
            <Array as="points">
              <mxPoint x="1056" y="347" />
            </Array>
          </mxGeometry>
        </mxCell>
        <mxCell id="cHgDqDQNEXxiHis1YK12-628" value="" style="curved=1;startArrow=none;endArrow=block;exitX=0;exitY=0.58;entryX=0.5;entryY=0;rounded=0;" edge="1" parent="1" source="cHgDqDQNEXxiHis1YK12-580" target="cHgDqDQNEXxiHis1YK12-585">
          <mxGeometry relative="1" as="geometry">
            <Array as="points">
              <mxPoint x="1224" y="347" />
            </Array>
          </mxGeometry>
        </mxCell>
        <mxCell id="cHgDqDQNEXxiHis1YK12-629" value="" style="curved=1;startArrow=none;endArrow=block;exitX=0;exitY=0.6;entryX=0.5;entryY=0;rounded=0;" edge="1" parent="1" source="cHgDqDQNEXxiHis1YK12-580" target="cHgDqDQNEXxiHis1YK12-586">
          <mxGeometry relative="1" as="geometry">
            <Array as="points">
              <mxPoint x="1368" y="347" />
            </Array>
          </mxGeometry>
        </mxCell>
        <mxCell id="cHgDqDQNEXxiHis1YK12-630" value="" style="curved=1;startArrow=none;endArrow=block;exitX=0;exitY=0.63;entryX=0.5;entryY=0;rounded=0;" edge="1" parent="1" source="cHgDqDQNEXxiHis1YK12-580" target="cHgDqDQNEXxiHis1YK12-587">
          <mxGeometry relative="1" as="geometry">
            <Array as="points">
              <mxPoint x="1512" y="347" />
            </Array>
          </mxGeometry>
        </mxCell>
        <mxCell id="cHgDqDQNEXxiHis1YK12-631" value="" style="curved=1;startArrow=none;endArrow=block;exitX=0;exitY=0.67;entryX=0.5;entryY=0;rounded=0;" edge="1" parent="1" source="cHgDqDQNEXxiHis1YK12-580" target="cHgDqDQNEXxiHis1YK12-588">
          <mxGeometry relative="1" as="geometry">
            <Array as="points">
              <mxPoint x="1663" y="347" />
            </Array>
          </mxGeometry>
        </mxCell>
        <mxCell id="cHgDqDQNEXxiHis1YK12-632" value="" style="curved=1;startArrow=none;endArrow=block;exitX=0;exitY=0.78;entryX=0.5;entryY=0;rounded=0;" edge="1" parent="1" source="cHgDqDQNEXxiHis1YK12-580" target="cHgDqDQNEXxiHis1YK12-589">
          <mxGeometry relative="1" as="geometry">
            <Array as="points">
              <mxPoint x="1821" y="347" />
            </Array>
          </mxGeometry>
        </mxCell>
        <mxCell id="cHgDqDQNEXxiHis1YK12-633" value="" style="curved=1;startArrow=none;endArrow=block;exitX=0.11;exitY=0.99;entryX=0.5;entryY=0;rounded=0;" edge="1" parent="1" source="cHgDqDQNEXxiHis1YK12-580" target="cHgDqDQNEXxiHis1YK12-590">
          <mxGeometry relative="1" as="geometry">
            <Array as="points">
              <mxPoint x="1972" y="347" />
            </Array>
          </mxGeometry>
        </mxCell>
        <mxCell id="cHgDqDQNEXxiHis1YK12-634" value="" style="curved=1;startArrow=none;endArrow=block;exitX=0.58;exitY=0.99;entryX=0.5;entryY=0;rounded=0;" edge="1" parent="1" source="cHgDqDQNEXxiHis1YK12-580" target="cHgDqDQNEXxiHis1YK12-591">
          <mxGeometry relative="1" as="geometry">
            <Array as="points">
              <mxPoint x="2116" y="347" />
            </Array>
          </mxGeometry>
        </mxCell>
        <mxCell id="cHgDqDQNEXxiHis1YK12-635" value="用户编号" style="curved=1;startArrow=none;endArrow=block;exitX=0;exitY=0.63;entryX=0.5;entryY=0;rounded=0;" edge="1" parent="1" source="cHgDqDQNEXxiHis1YK12-592" target="cHgDqDQNEXxiHis1YK12-593">
          <mxGeometry relative="1" as="geometry">
            <Array as="points">
              <mxPoint x="2260" y="347" />
            </Array>
          </mxGeometry>
        </mxCell>
        <mxCell id="cHgDqDQNEXxiHis1YK12-636" value="" style="curved=1;startArrow=none;endArrow=block;exitX=0;exitY=0.68;entryX=0.5;entryY=0;rounded=0;" edge="1" parent="1" source="cHgDqDQNEXxiHis1YK12-592" target="cHgDqDQNEXxiHis1YK12-594">
          <mxGeometry relative="1" as="geometry">
            <Array as="points">
              <mxPoint x="2404" y="347" />
            </Array>
          </mxGeometry>
        </mxCell>
        <mxCell id="cHgDqDQNEXxiHis1YK12-637" value="" style="curved=1;startArrow=none;endArrow=block;exitX=0;exitY=0.78;entryX=0.5;entryY=0;rounded=0;" edge="1" parent="1" source="cHgDqDQNEXxiHis1YK12-592" target="cHgDqDQNEXxiHis1YK12-595">
          <mxGeometry relative="1" as="geometry">
            <Array as="points">
              <mxPoint x="2540" y="347" />
            </Array>
          </mxGeometry>
        </mxCell>
        <mxCell id="cHgDqDQNEXxiHis1YK12-638" value="" style="curved=1;startArrow=none;endArrow=block;exitX=0.11;exitY=0.99;entryX=0.5;entryY=0;rounded=0;" edge="1" parent="1" source="cHgDqDQNEXxiHis1YK12-592" target="cHgDqDQNEXxiHis1YK12-596">
          <mxGeometry relative="1" as="geometry">
            <Array as="points">
              <mxPoint x="2692" y="347" />
            </Array>
          </mxGeometry>
        </mxCell>
        <mxCell id="cHgDqDQNEXxiHis1YK12-639" value="" style="curved=1;startArrow=none;endArrow=block;exitX=0.71;exitY=0.99;entryX=0.5;entryY=0;rounded=0;" edge="1" parent="1" source="cHgDqDQNEXxiHis1YK12-592" target="cHgDqDQNEXxiHis1YK12-597">
          <mxGeometry relative="1" as="geometry">
            <Array as="points">
              <mxPoint x="2876" y="347" />
            </Array>
          </mxGeometry>
        </mxCell>
        <mxCell id="cHgDqDQNEXxiHis1YK12-640" value="新闻链接哈希值" style="curved=1;startArrow=none;endArrow=block;exitX=0;exitY=0.56;entryX=0.5;entryY=0;rounded=0;" edge="1" parent="1" source="cHgDqDQNEXxiHis1YK12-598" target="cHgDqDQNEXxiHis1YK12-599">
          <mxGeometry relative="1" as="geometry">
            <Array as="points">
              <mxPoint x="1952" y="468" />
            </Array>
          </mxGeometry>
        </mxCell>
        <mxCell id="cHgDqDQNEXxiHis1YK12-641" value="" style="curved=1;startArrow=none;endArrow=block;exitX=0;exitY=0.58;entryX=0.5;entryY=0;rounded=0;" edge="1" parent="1" source="cHgDqDQNEXxiHis1YK12-598" target="cHgDqDQNEXxiHis1YK12-600">
          <mxGeometry relative="1" as="geometry">
            <Array as="points">
              <mxPoint x="2127" y="468" />
            </Array>
          </mxGeometry>
        </mxCell>
        <mxCell id="cHgDqDQNEXxiHis1YK12-642" value="" style="curved=1;startArrow=none;endArrow=block;exitX=0;exitY=0.59;entryX=0.5;entryY=0;rounded=0;" edge="1" parent="1" source="cHgDqDQNEXxiHis1YK12-598" target="cHgDqDQNEXxiHis1YK12-601">
          <mxGeometry relative="1" as="geometry">
            <Array as="points">
              <mxPoint x="2278" y="468" />
            </Array>
          </mxGeometry>
        </mxCell>
        <mxCell id="cHgDqDQNEXxiHis1YK12-643" value="" style="curved=1;startArrow=none;endArrow=block;exitX=0;exitY=0.61;entryX=0.5;entryY=0;rounded=0;" edge="1" parent="1" source="cHgDqDQNEXxiHis1YK12-598" target="cHgDqDQNEXxiHis1YK12-602">
          <mxGeometry relative="1" as="geometry">
            <Array as="points">
              <mxPoint x="2426" y="468" />
            </Array>
          </mxGeometry>
        </mxCell>
        <mxCell id="cHgDqDQNEXxiHis1YK12-644" value="" style="curved=1;startArrow=none;endArrow=block;exitX=0;exitY=0.65;entryX=0.5;entryY=0;rounded=0;" edge="1" parent="1" source="cHgDqDQNEXxiHis1YK12-598" target="cHgDqDQNEXxiHis1YK12-603">
          <mxGeometry relative="1" as="geometry">
            <Array as="points">
              <mxPoint x="2574" y="468" />
            </Array>
          </mxGeometry>
        </mxCell>
        <mxCell id="cHgDqDQNEXxiHis1YK12-645" value="" style="curved=1;startArrow=none;endArrow=block;exitX=0;exitY=0.71;entryX=0.5;entryY=0;rounded=0;" edge="1" parent="1" source="cHgDqDQNEXxiHis1YK12-598" target="cHgDqDQNEXxiHis1YK12-604">
          <mxGeometry relative="1" as="geometry">
            <Array as="points">
              <mxPoint x="2718" y="468" />
            </Array>
          </mxGeometry>
        </mxCell>
        <mxCell id="cHgDqDQNEXxiHis1YK12-646" value="" style="curved=1;startArrow=none;endArrow=block;exitX=0;exitY=0.86;entryX=0.5;entryY=0;rounded=0;" edge="1" parent="1" source="cHgDqDQNEXxiHis1YK12-598" target="cHgDqDQNEXxiHis1YK12-605">
          <mxGeometry relative="1" as="geometry">
            <Array as="points">
              <mxPoint x="2862" y="468" />
            </Array>
          </mxGeometry>
        </mxCell>
        <mxCell id="cHgDqDQNEXxiHis1YK12-647" value="" style="curved=1;startArrow=none;endArrow=block;exitX=0.46;exitY=0.99;entryX=0.5;entryY=0;rounded=0;" edge="1" parent="1" source="cHgDqDQNEXxiHis1YK12-598" target="cHgDqDQNEXxiHis1YK12-606">
          <mxGeometry relative="1" as="geometry">
            <Array as="points">
              <mxPoint x="3061" y="468" />
            </Array>
          </mxGeometry>
        </mxCell>
        <mxCell id="cHgDqDQNEXxiHis1YK12-648" value="" style="curved=1;startArrow=none;endArrow=block;exitX=1;exitY=0.81;entryX=0.5;entryY=0;rounded=0;" edge="1" parent="1" source="cHgDqDQNEXxiHis1YK12-598" target="cHgDqDQNEXxiHis1YK12-607">
          <mxGeometry relative="1" as="geometry">
            <Array as="points">
              <mxPoint x="3315" y="468" />
            </Array>
          </mxGeometry>
        </mxCell>
        <mxCell id="cHgDqDQNEXxiHis1YK12-649" value="" style="curved=1;startArrow=none;endArrow=block;exitX=1;exitY=0.65;entryX=0.5;entryY=0;rounded=0;" edge="1" parent="1" source="cHgDqDQNEXxiHis1YK12-598" target="cHgDqDQNEXxiHis1YK12-608">
          <mxGeometry relative="1" as="geometry">
            <Array as="points">
              <mxPoint x="3569" y="468" />
            </Array>
          </mxGeometry>
        </mxCell>
        <mxCell id="cHgDqDQNEXxiHis1YK12-650" value="1:N" style="curved=1;startArrow=none;endArrow=block;exitX=1;exitY=0.57;entryX=0.5;entryY=0;rounded=0;" edge="1" parent="1" source="cHgDqDQNEXxiHis1YK12-562" target="cHgDqDQNEXxiHis1YK12-572">
          <mxGeometry relative="1" as="geometry">
            <Array as="points">
              <mxPoint x="1234" y="105" />
            </Array>
          </mxGeometry>
        </mxCell>
        <mxCell id="cHgDqDQNEXxiHis1YK12-651" value="1:N" style="curved=1;startArrow=none;endArrow=block;exitX=1;exitY=0.65;entryX=0.66;entryY=0;rounded=0;" edge="1" parent="1" source="cHgDqDQNEXxiHis1YK12-567" target="cHgDqDQNEXxiHis1YK12-572">
          <mxGeometry relative="1" as="geometry">
            <Array as="points">
              <mxPoint x="1282" y="105" />
            </Array>
          </mxGeometry>
        </mxCell>
        <mxCell id="cHgDqDQNEXxiHis1YK12-652" value="1:N" style="curved=1;startArrow=none;endArrow=block;exitX=1;exitY=0.58;entryX=0.5;entryY=0;rounded=0;" edge="1" parent="1" source="cHgDqDQNEXxiHis1YK12-572" target="cHgDqDQNEXxiHis1YK12-580">
          <mxGeometry relative="1" as="geometry">
            <Array as="points">
              <mxPoint x="2092" y="226" />
            </Array>
          </mxGeometry>
        </mxCell>
        <mxCell id="cHgDqDQNEXxiHis1YK12-653" value="1:N" style="curved=1;startArrow=none;endArrow=block;exitX=1;exitY=0.58;entryX=0.22;entryY=0;rounded=0;" edge="1" parent="1" source="cHgDqDQNEXxiHis1YK12-580" target="cHgDqDQNEXxiHis1YK12-598">
          <mxGeometry relative="1" as="geometry">
            <Array as="points">
              <mxPoint x="2985" y="347" />
            </Array>
          </mxGeometry>
        </mxCell>
        <mxCell id="cHgDqDQNEXxiHis1YK12-654" value="N:1" style="curved=1;startArrow=none;endArrow=block;exitX=1;exitY=0.76;entryX=0.58;entryY=0;rounded=0;" edge="1" parent="1" source="cHgDqDQNEXxiHis1YK12-592" target="cHgDqDQNEXxiHis1YK12-598">
          <mxGeometry relative="1" as="geometry">
            <Array as="points">
              <mxPoint x="3096" y="347" />
            </Array>
          </mxGeometry>
        </mxCell>
      </root>
    </mxGraphModel>
  </diagram>
</mxfile>
